<svg id="Layer_1" height="512" viewBox="0 0 512 512" width="512" xmlns="http://www.w3.org/2000/svg" xmlns:xlink="http://www.w3.org/1999/xlink" data-name="Layer 1"><linearGradient id="linear-gradient" gradientUnits="userSpaceOnUse" x1="396.356" x2="396.356" y1="423.291" y2="133.743"><stop offset=".322" stop-color="#a163f5"/><stop offset=".466" stop-color="#b074ee"/><stop offset=".752" stop-color="#d8a1dd"/><stop offset=".898" stop-color="#efbad3"/></linearGradient><linearGradient id="linear-gradient-2" x1="433.057" x2="433.057" xlink:href="#linear-gradient" y1="423.291" y2="133.743"/><linearGradient id="linear-gradient-3" x1="116.112" x2="116.112" xlink:href="#linear-gradient" y1="423.291" y2="133.743"/><linearGradient id="linear-gradient-5" x1="256" x2="256" xlink:href="#linear-gradient" y1="423.291" y2="133.743"/><path d="m377.147 185.563h38.417a6 6 0 0 0 0-12h-38.417a6 6 0 0 0 0 12z" fill="url(#linear-gradient)"/><path d="m433.057 187.021a7.458 7.458 0 1 0 -7.458-7.458 7.466 7.466 0 0 0 7.458 7.458z" fill="url(#linear-gradient-2)"/><path d="m116.112 75.323a6 6 0 0 0 -6 6v12.265a6 6 0 0 0 12 0v-12.265a6 6 0 0 0 -6-6z" fill="url(#linear-gradient-3)"/><path d="m116.112 108.186a6 6 0 0 0 -6 6v90.914a6 6 0 0 0 12 0v-90.91a6 6 0 0 0 -6-6.004z" fill="url(#linear-gradient-3)"/><path d="m504.084 217.746v-30.164a27.9 27.9 0 0 0 -27.866-27.867h-28.443v-126.948a27.82 27.82 0 0 0 -27.811-27.767h-348.983a27.82 27.82 0 0 0 -27.811 27.767v255.214h-32.17a6 6 0 0 0 -6 6v28.3a27.821 27.821 0 0 0 27.812 27.768h274.766v129.085a27.9 27.9 0 0 0 27.866 27.866h140.774a27.9 27.9 0 0 0 27.866-27.866v-236.534a5.989 5.989 0 0 0 2.916-5.136v-14.578a5.992 5.992 0 0 0 -2.916-5.14zm-56.876-46.031v8.578a8.587 8.587 0 0 1 -8.577 8.577h-65.6a8.587 8.587 0 0 1 -8.577-8.577v-8.578zm-139.63 166.332h-274.766a15.808 15.808 0 0 1 -15.812-15.768v-22.3h178.85v7.061a16.914 16.914 0 0 0 16.905 16.884h65.435a16.915 16.915 0 0 0 16.91-16.882v-7.061h12.482zm-99.728-31.005v-7.061h75.25v7.061a4.9 4.9 0 0 1 -4.906 4.884h-65.439a4.9 4.9 0 0 1 -4.905-4.884zm99.728-119.46v36.4a6 6 0 0 0 -3.984 5.646v14.577a6 6 0 0 0 3.984 5.645v5.478h-163.466a6 6 0 0 0 0 12h159.482v13.322a6 6 0 0 0 3.984 5.645v1.686h-252.408v-255.214a15.807 15.807 0 0 1 15.811-15.767h348.983a15.807 15.807 0 0 1 15.811 15.767v126.948h-20.717v-116.064a6 6 0 0 0 -6-6h-327.171a6 6 0 0 0 -6 6v217.678a6 6 0 0 0 6 6h22.225a6 6 0 1 0 0-12h-16.225v-205.678h315.171v110.064h-67.614a27.9 27.9 0 0 0 -27.866 27.867zm184.506 291.552a15.883 15.883 0 0 1 -15.866 15.866h-140.774a15.883 15.883 0 0 1 -15.866-15.866v-291.552a15.884 15.884 0 0 1 15.866-15.867h17.01v8.578a20.6 20.6 0 0 0 20.577 20.577h65.6a20.6 20.6 0 0 0 20.577-20.577v-8.578h17.01a15.884 15.884 0 0 1 15.866 15.867z" fill="url(#linear-gradient-5)"/></svg>